HIERARCHY
ROOT root
{
	OFFSET	0	13.1	24.9
	CHANNELS 6  Xposition Yposition Zposition Xrotation Yrotation Zrotation
	JOINT spine_1
	{
		OFFSET	0	9.99999	0
		CHANNELS 3  Xrotation Yrotation Zrotation
		JOINT spine_2
		{
			OFFSET	0	112	-10
			CHANNELS 3  Xrotation Yrotation Zrotation
			JOINT spine_3
			{
				OFFSET	0	206.5	19.3
				CHANNELS 3  Xrotation Yrotation Zrotation
				JOINT spine_4
				{
					OFFSET	0	110.4	14.6
					CHANNELS 3  Xrotation Yrotation Zrotation
					JOINT neck_1
					{
						OFFSET	0	71.8	-50.3
						CHANNELS 3  Xrotation Yrotation Zrotation
						JOINT neck_2
						{
							OFFSET	0	86.2	-25.8
							CHANNELS 3  Xrotation Yrotation Zrotation
							JOINT head_ee
							{
								OFFSET	0	179.8	-8.7
								CHANNELS 3  Xrotation Yrotation Zrotation
								End Site
								{
									OFFSET	1	0	0
								}
							}
						}
					}
					JOINT left_clavicle
					{
						OFFSET	-43.2	22.4	-70.8
						CHANNELS 3  Xrotation Yrotation Zrotation
						JOINT left_shoulder
						{
							OFFSET	-93.9	-5.79999	48.7
							CHANNELS 3  Xrotation Yrotation Zrotation
							JOINT left_elbow
							{
								OFFSET	-291.4	-30.8	15.2
								CHANNELS 3  Xrotation Yrotation Zrotation
								JOINT left_lowarm_twist
								{
									OFFSET	-110.7	-3.89999	13.6
									CHANNELS 3  Xrotation Yrotation Zrotation
									JOINT left_hand
									{
										OFFSET	-110.7	-3.89999	13.6
										CHANNELS 3  Xrotation Yrotation Zrotation
										JOINT left_ee
										{
											OFFSET	-80.8	-5.10001	12.1
											CHANNELS 3  Xrotation Yrotation Zrotation
											End Site
											{
												OFFSET	1	0	0
											}
										}
									}
								}
							}
						}
					}
					JOINT right_clavicle
					{
						OFFSET	43.2	22.4	-70.8
						CHANNELS 3  Xrotation Yrotation Zrotation
						JOINT right_shoulder
						{
							OFFSET	93.9	-5.79999	48.7
							CHANNELS 3  Xrotation Yrotation Zrotation
							JOINT right_elbow
							{
								OFFSET	291.4	-30.8	15.2
								CHANNELS 3  Xrotation Yrotation Zrotation
								JOINT right_lowarm_twist
								{
									OFFSET	110.7	-3.89999	13.6
									CHANNELS 3  Xrotation Yrotation Zrotation
									JOINT right_hand
									{
										OFFSET	110.7	-3.89999	13.6
										CHANNELS 3  Xrotation Yrotation Zrotation
										JOINT right_ee
										{
											OFFSET	80.8	-5.10001	12.1
											CHANNELS 3  Xrotation Yrotation Zrotation
											End Site
											{
												OFFSET	1	0	0
											}
										}
									}
								}
							}
						}
					}
				}
			}
		}
	}
	JOINT left_hip
	{
		OFFSET	-82.8	-127.5	0.300001
		CHANNELS 3  Xrotation Yrotation Zrotation
		JOINT left_knee
		{
			OFFSET	-28.2	-396.7	2.2
			CHANNELS 3  Xrotation Yrotation Zrotation
			JOINT left_ankle
			{
				OFFSET	-11.7	-411.3	35.4
				CHANNELS 3  Xrotation Yrotation Zrotation
				JOINT left_toes
				{
					OFFSET	0	-60	-88.6
					CHANNELS 3  Xrotation Yrotation Zrotation
					JOINT left_foot_ee
					{
						OFFSET	-22.5	-16.5	-42.2
						CHANNELS 3  Xrotation Yrotation Zrotation
						End Site
						{
							OFFSET	1	0	0
						}
					}
				}
			}
		}
	}
	JOINT right_hip
	{
		OFFSET	82.8	-127.5	0.300001
		CHANNELS 3  Xrotation Yrotation Zrotation
		JOINT right_knee
		{
			OFFSET	28.2	-396.7	2.2
			CHANNELS 3  Xrotation Yrotation Zrotation
			JOINT right_ankle
			{
				OFFSET	11.7	-411.3	35.4
				CHANNELS 3  Xrotation Yrotation Zrotation
				JOINT right_toes
				{
					OFFSET	0	-60	-88.6
					CHANNELS 3  Xrotation Yrotation Zrotation
					JOINT right_foot_ee
					{
						OFFSET	22.5	-16.5	-42.2
						CHANNELS 3  Xrotation Yrotation Zrotation
						End Site
						{
							OFFSET	1	0	0
						}
					}
				}
			}
		}
	}
}
MOTION
Frames: 8
Frame Time: 0.02
2194.47 684.362 -488.26 60.6631 -77.3517 67.1881 -3.99729 -0.0881026 -0.770401 -3.99695 -0.0389029 -0.774445 -3.99593 0.177774 -0.75477 -3.99672 0.0563449 -0.773372 -23.7752 5.21416 -3.27605 -24.0 11.5054 -0.492998 -0.0 0.0 -0.0 8.09346 20.7951 14.3525 -33.8841 -29.0623 51.044 1.01691 -26.736 0.241669 -80.6623 -7.9058 5.27033 -0.902461 14.391 0.275571 -0.0 0.0 -0.0 11.8582 12.4236 -23.9394 2.1802 23.1002 -55.0551 0.422981 11.8343 -0.0438391 -6.95973 0.296576 -0.838283 1.49344 -1.22617 -10.518 0.0 0.0 0.0 21.1477 0.673408 -17.6339 -48.3752 -1.08362 7.12819 35.1218 22.1806 -4.60113 -10.0231 0.0 0.0 -0.0 0.0 -0.0 -6.16236 12.9233 -17.9899 -34.3292 0.145949 -5.18842 19.7524 -18.7653 2.75628 5.36134 -0.0 -0.0 0.0 0.0 0.0 
2200.11 683.958 -487.372 54.4632 -76.9296 61.578 -4.06259 -0.0249213 -0.823108 -4.06221 0.027504 -0.823026 -4.0621 0.255974 -0.782694 -4.06293 0.129154 -0.813295 -22.1379 3.97382 -3.37938 -22.2539 9.25829 -1.31777 -0.0 0.0 -0.0 7.8696 20.3691 14.0567 -34.9131 -31.9733 50.4418 0.869068 -23.2922 0.179126 -79.3732 -7.74226 5.28774 0.181606 9.60713 5.15286 -0.0 0.0 -0.0 11.8883 14.0364 -23.9728 3.41903 20.8792 -54.6641 0.520323 14.4537 -0.0659803 -3.85766 0.151792 -0.46906 1.01268 1.3953 -6.20882 0.0 0.0 0.0 23.1883 0.831889 -17.959 -45.6695 -0.866267 6.77299 29.7166 23.0507 -4.03037 -13.1129 0.0 0.0 -0.0 0.0 -0.0 -7.95341 9.3675 -18.3065 -32.0189 0.0385432 -4.85023 19.6124 -19.1085 2.74179 6.7228 -0.0 -0.0 0.0 0.0 0.0 
2209.23 686.803 -487.769 50.163 -76.1983 58.1469 -4.16987 0.00995528 -1.08316 -4.16922 0.0788551 -1.08033 -4.16986 0.378987 -1.01475 -4.17124 0.21398 -1.06186 -22.0037 3.35608 -4.9761 -22.0687 8.83022 -3.09381 -0.0 0.0 -0.0 8.46188 20.1983 14.9948 -35.3314 -31.2365 50.6394 0.752861 -20.4527 0.135821 -79.4905 -7.75716 5.28631 0.742458 7.67699 8.03787 -0.0 0.0 -0.0 12.3672 17.6589 -24.9244 4.44312 19.0219 -53.0048 0.545368 15.1183 -0.0723722 -1.2655 0.0463043 -0.15497 1.13739 3.26143 -6.28083 0.0 0.0 0.0 25.3291 1.44248 -18.3032 -43.9685 -0.738346 6.54469 28.936 23.4172 -3.94812 -13.3505 0.0 0.0 -0.0 0.0 -0.0 -8.45199 10.8336 -19.6865 -30.9084 -0.00819986 -4.68624 23.245 -18.7101 3.1929 8.34565 -0.0 -0.0 0.0 0.0 0.0 
2214.97 689.184 -490.823 47.4696 -75.6671 56.0812 -4.22852 -0.147339 -1.46108 -4.22734 -0.0540784 -1.46749 -4.22412 0.361451 -1.42332 -4.22692 0.132154 -1.46253 -20.2099 3.34811 -5.70403 -20.2502 9.33277 -3.88975 -0.0 0.0 -0.0 7.83361 19.9394 14.0472 -35.5208 -32.4744 52.9634 0.797714 -21.5621 0.151901 -78.2503 -7.59946 5.29988 1.67265 1.75586 11.9444 -0.0 0.0 -0.0 12.1756 18.074 -24.4604 5.1491 17.0471 -51.6309 0.710216 19.3829 -0.121292 0.246936 -0.00863529 0.0303548 0.57601 10.0096 0.364398 0.0 0.0 0.0 26.6961 1.64146 -18.1319 -35.331 -0.19675 5.33368 20.7751 25.6814 -2.98197 -14.345 0.0 0.0 -0.0 0.0 -0.0 -11.2073 9.74328 -19.7741 -23.6275 -0.23496 -3.59259 14.9312 -19.6012 2.13055 9.15936 -0.0 -0.0 0.0 0.0 0.0 
2227.7 691.178 -493.406 44.991 -75.4705 54.0884 -4.20846 -0.0459277 -1.47184 -4.20726 0.0478122 -1.47178 -4.20681 0.460031 -1.39887 -4.20947 0.233357 -1.45395 -19.0258 2.42994 -5.9936 -19.0091 7.82805 -4.61322 -0.0 0.0 -0.0 7.44424 19.8085 13.4568 -36.1345 -32.8852 53.9185 0.751425 -20.417 0.135319 -77.3126 -7.48002 5.30785 2.22249 -0.327297 14.8918 -0.0 0.0 -0.0 12.104 19.0807 -24.235 6.27874 16.7983 -51.0943 0.787414 21.3088 -0.148136 0.25037 -0.00875424 0.0307773 0.556349 11.0327 0.935207 0.0 0.0 0.0 27.5344 1.33524 -17.5177 -29.4512 0.0646968 4.46974 15.5515 27.1567 -2.29846 -16.461 0.0 0.0 -0.0 0.0 -0.0 -13.6265 10.5163 -20.1925 -18.7359 -0.308539 -2.84584 12.6477 -18.2359 1.81111 11.3098 -0.0 -0.0 0.0 0.0 0.0 
2237.99 696.024 -499.302 42.3506 -75.4906 51.7926 -4.1594 -0.0466311 -1.5566 -4.15805 0.0525018 -1.55642 -4.15762 0.48709 -1.47918 -4.16059 0.247397 -1.53753 -19.4461 2.11766 -6.51789 -19.4063 7.45681 -5.20714 -0.0 0.0 -0.0 7.05125 20.0233 12.8322 -36.4984 -33.4984 55.2775 0.735958 -20.0304 0.129972 -76.3798 -7.36105 5.31382 2.74579 -3.68018 17.1775 -0.0 0.0 -0.0 12.0067 19.5415 -23.9812 7.08977 16.2147 -50.5023 0.883825 23.6446 -0.185003 0.617965 -0.0213632 0.0760321 0.166859 13.3149 4.54052 0.0 0.0 0.0 28.0898 1.26052 -16.933 -25.3733 0.193297 3.85726 12.5505 27.9044 -1.88313 -17.4486 0.0 0.0 -0.0 0.0 -0.0 -15.4449 10.0805 -20.1488 -14.0004 -0.318855 -2.11955 7.36942 -18.7086 1.07519 12.1817 -0.0 -0.0 0.0 0.0 0.0 
2245.46 696.996 -502.736 39.675 -75.4229 49.3416 -4.04984 -0.0519174 -1.66152 -4.0483 0.0538998 -1.66146 -4.04779 0.51489 -1.5806 -4.05118 0.258838 -1.64206 -20.2398 2.05398 -6.00479 -20.2132 6.98771 -4.71747 -0.0 0.0 -0.0 6.57749 20.2456 12.0919 -36.8267 -33.9169 56.1003 0.723446 -19.7164 0.125719 -76.7142 -7.40372 5.31191 3.11636 -4.46133 19.4768 -0.0 0.0 -0.0 11.7661 20.1346 -23.3885 8.16727 16.2943 -49.9155 0.981004 25.9174 -0.225743 0.250306 -0.00875196 0.0307693 0.351579 14.6362 3.86161 0.0 0.0 0.0 28.1813 1.34735 -16.3624 -19.278 0.303531 2.92886 11.5652 26.0765 -1.72165 -19.5854 0.0 0.0 -0.0 0.0 -0.0 -16.8641 9.81357 -20.1066 -10.6306 -0.289646 -1.6034 5.34087 -19.4852 0.785845 13.8144 -0.0 -0.0 0.0 0.0 0.0 
2254.48 695.258 -502.414 36.5849 -74.8235 46.2116 -3.99496 -0.108965 -1.66739 -3.99341 -0.00265937 -1.67094 -3.99114 0.46161 -1.60594 -3.99469 0.202226 -1.65867 -21.8124 2.92733 -6.41299 -21.8267 8.70491 -4.63648 -0.0 0.0 -0.0 6.28127 20.7235 11.6121 -37.0617 -34.1525 56.2935 0.710619 -19.3931 0.121426 -77.1783 -7.46291 5.30883 3.20015 -5.00933 19.8409 -0.0 0.0 -0.0 11.664 20.6453 -23.1176 7.96745 17.9152 -48.8609 1.06564 27.8282 -0.264004 1.47244 -0.0495476 0.181528 0.22772 12.8261 3.92066 0.0 0.0 0.0 27.9599 1.70366 -15.545 -14.4232 0.320375 2.1844 8.78094 25.4425 -1.31388 -19.9094 0.0 0.0 -0.0 0.0 -0.0 -16.4456 9.00375 -20.3767 -12.5874 -0.310304 -1.90293 4.53837 -19.0088 0.668143 14.2118 -0.0 -0.0 0.0 0.0 0.0 
